# xmcd
#
# Track frame offsets: 
#        150
#        13512
#        24868
#        38798
#        47453
#        60668
#        77463
#
# Disc length: 1149 seconds
#
# Revision: 3
# Processed by: cddbd v1.5.2PL0 Copyright (c) Steve Scherf et al.
# Submitted via: ExactAudioCopy v0.99pb4
#
DISCID=40047b07
DTITLE=Lagwagon - I think my older brother used to listen to Lagwagon
DYEAR=2008
DGENRE=Punk
TTITLE0=B Side
TTITLE1=No Little Pill
TTITLE2=Errands
TTITLE3=Memoirs and Landmines
TTITLE4=Fallen
TTITLE5=Live it down
TTITLE6=Mission unaccomplished
EXTD=
EXTT0=
EXTT1=
EXTT2=
EXTT3=
EXTT4=
EXTT5=
EXTT6=
PLAYORDER=
